<?xml version="1.0" encoding="utf-8"?>
<!-- Generator: Adobe Illustrator 21.0.0, SVG Export Plug-In . SVG Version: 6.00 Build 0)  -->
<svg version="1.1" id="Layer_1" xmlns="http://www.w3.org/2000/svg" xmlns:xlink="http://www.w3.org/1999/xlink" x="0px" y="0px"
	 viewBox="0 0 252 366" style="enable-background:new 0 0 252 366;" xml:space="preserve">
<style type="text/css">
	.st0{fill:none;stroke:#FFFFFF;stroke-width:10;stroke-miterlimit:10;}
	.st1{fill:#FFFFFF;}
</style>
<g id="glass">
	<path class="st0" d="M185.7,355H66.3c-6.2,0-11.5-4.6-12.3-10.8L11.1,25.1c-1-7.5,4.8-14.1,12.3-14.1h205.1
		c7.5,0,13.3,6.6,12.3,14.1L198,344.2C197.2,350.4,192,355,185.7,355z"/>
	<path class="st1" d="M68.9,339.6l-26.2-195l1.9-0.8c13.4-5.7,26.8-8.5,39.9-8.5c1.8,0,3.7,0.1,5.5,0.2c15.8,1,26.9,5.8,37.7,10.4
		c10.6,4.6,20.6,8.9,34.8,9.8c1.7,0.1,3.5,0.2,5.2,0.2c12,0,24.5-2.7,37.1-8.2l4.4-1.9l-0.6,4.8c-0.1,0.6-25.4,189-25.4,189H68.9z"
		/>
</g>
</svg>
