<?xml version="1.0" encoding="utf-8"?>
<!-- Generator: Adobe Illustrator 21.0.0, SVG Export Plug-In . SVG Version: 6.00 Build 0)  -->
<svg version="1.1" xmlns="http://www.w3.org/2000/svg" xmlns:xlink="http://www.w3.org/1999/xlink" x="0px" y="0px"
	 viewBox="0 0 512 512" style="enable-background:new 0 0 512 512;" xml:space="preserve">
<style type="text/css">
	.st0{fill:#3767AD;}
	.st1{fill:none;stroke:#FFFFFF;stroke-width:10;stroke-miterlimit:10;}
	.st2{fill:#FFFFFF;}
</style>
<g id="background">
	<rect class="st0" width="512" height="512"/>
</g>
<g id="glass">
	<path class="st1" d="M315.7,428H196.3c-6.2,0-11.5-4.6-12.3-10.8L141.1,98.1c-1-7.5,4.8-14.1,12.3-14.1h205.1
		c7.5,0,13.3,6.6,12.3,14.1l-42.8,319.1C327.2,423.4,322,428,315.7,428z"/>
	<path class="st2" d="M198.9,412.6l-26.2-195l1.9-0.8c13.4-5.7,26.8-8.5,39.9-8.5c1.8,0,3.7,0.1,5.5,0.2c15.8,1,26.9,5.8,37.7,10.4
		c10.6,4.6,20.6,8.9,34.8,9.8c1.7,0.1,3.5,0.2,5.2,0.2c12,0,24.5-2.7,37.1-8.2l4.4-1.9l-0.6,4.8c-0.1,0.6-25.4,189-25.4,189H198.9z"
		/>
</g>
</svg>
