<svg xmlns="http://www.w3.org/2000/svg" style="display: none;">

  <!-- LOGOTYPE /////////////////////////////////////////////////////////// -->

  <symbol id="logo-white" viewBox="0 0 512 135">
    <path d="M96.8 103.5c-3.8 0-7.4-.7-10.8-2.2s-6.3-3.5-8.9-6c-2.5-2.5-4.5-5.5-6-8.9s-2.2-7-2.2-10.8v-43.3h12v43.3c0 2.2.4 4.3 1.3 6.3.8 2 2 3.7 3.4 5.1s3.1 2.6 5 3.4 4 1.3 6.2 1.3 4.3-.4 6.3-1.3c2-.8 3.6-2 5.1-3.4 1.4-1.4 2.6-3.1 3.4-5.1s1.3-4 1.3-6.3v-43.3h11.9v74.8c0 3.9-.8 7.6-2.4 11s-3.7 6.4-6.5 8.9c-2.7 2.5-6 4.5-9.7 5.9-3.7 1.4-7.7 2.2-12 2.2v-11.9c2.6 0 5-.4 7.3-1.3 2.3-.8 4.3-2 5.9-3.5 1.7-1.5 3-3.2 4-5.1s1.5-4 1.5-6.2v-8.6c-2.3 1.6-4.8 2.8-7.5 3.7-2.7.8-5.6 1.3-8.6 1.3zm79.6-72.7c4.7 0 9.2.8 13.3 2.5s7.8 4 11.1 6.8v-40.2h11.9v67.3c0 5-1 9.7-2.9 14.2-1.9 4.4-4.5 8.3-7.7 11.5-3.3 3.3-7.1 5.8-11.5 7.7-4.4 1.9-9.1 2.9-14.2 2.9-5 0-9.7-1-14.1-2.9s-8.2-4.5-11.5-7.7c-3.3-3.3-5.9-7.1-7.8-11.5-1.9-4.4-2.9-9.1-2.9-14.2 0-5 1-9.7 2.9-14.2 1.9-4.4 4.5-8.3 7.8-11.6 3.3-3.3 7.1-5.9 11.5-7.8 4.4-1.9 9.1-2.8 14.1-2.8zm0 12c-3.4 0-6.5.6-9.5 1.9-3 1.3-5.6 3-7.7 5.2-2.2 2.2-3.9 4.8-5.2 7.8s-2 6.1-2 9.5c0 3.3.6 6.5 2 9.5 1.3 3 3 5.6 5.2 7.7 2.2 2.2 4.8 3.9 7.7 5.2 3 1.3 6.1 2 9.5 2s6.5-.6 9.5-2c3-1.3 5.6-3 7.8-5.2s4-4.8 5.2-7.7c1.3-3 1.9-6.1 1.9-9.5 0-3.3-.6-6.5-1.9-9.5-1.3-3-3-5.6-5.2-7.8s-4.8-4-7.8-5.2c-3-1.3-6.2-1.9-9.5-1.9zm61.5 59.4h-12v-34.9c0-5 1-9.8 3.1-14.2 2-4.5 4.8-8.3 8.4-11.6 3.5-3.3 7.7-5.8 12.4-7.7 4.7-1.9 9.7-2.9 15.1-2.9v12c-3.7 0-7.2.6-10.5 1.9-3.3 1.3-6.1 3-8.6 5.2s-4.4 4.8-5.8 7.8c-1.4 3-2.1 6.1-2.1 9.5v34.9zm65.8-71.4c5 0 9.8 1 14.2 2.9 4.5 1.9 8.4 4.5 11.7 7.8 3.3 3.3 5.9 7.2 7.8 11.6s2.9 9.1 2.9 14.2v34.9h-12.1v-7.8c-3.3 2.9-7 5.1-11.1 6.8-4.1 1.6-8.6 2.4-13.3 2.4-5 0-9.7-1-14.1-2.9s-8.2-4.5-11.5-7.7c-3.3-3.3-5.9-7.1-7.8-11.5s-2.9-9.1-2.9-14.2c0-5 1-9.7 2.9-14.2 1.9-4.4 4.5-8.3 7.8-11.6 3.3-3.3 7.1-5.9 11.5-7.8 4.2-2 8.9-2.9 14-2.9zm0 12c-3.4 0-6.5.6-9.5 1.9-3 1.3-5.6 3-7.7 5.2-2.2 2.2-3.9 4.8-5.2 7.8-1.3 3-2 6.1-2 9.5 0 3.3.6 6.5 2 9.5 1.3 3 3 5.6 5.2 7.7 2.2 2.2 4.8 3.9 7.7 5.2 3 1.3 6.1 2 9.5 2s6.7-.6 9.6-2c3-1.3 5.6-3 7.7-5.2 2.2-2.2 3.9-4.8 5.2-7.7 1.3-3 1.9-6.1 1.9-9.5 0-3.3-.6-6.5-1.9-9.5s-3-5.6-5.2-7.8-4.8-4-7.7-5.2c-3-1.3-6.2-1.9-9.6-1.9zm50.1 49.8c1.6 2.3 3.4 4.3 5.4 6.2 2 2 4.2 3.8 6.6 5.4v30.8h-12v-42.4zm85.4 0c1.6 2.3 3.4 4.3 5.4 6.2 2 2 4.2 3.8 6.6 5.4v30.8h-12v-42.4zm-342.4 10.9c-3.8 0-7.4-.7-10.8-2.2s-6.3-3.5-8.9-6c-2.5-2.5-4.5-5.5-6-8.9s-2.2-7-2.2-10.8v-43.3h12v43.3c0 2.2.4 4.3 1.3 6.3.8 2 2 3.7 3.4 5.1s3.1 2.6 5 3.4 4 1.3 6.2 1.3 4.3-.4 6.3-1.3c2-.8 3.6-2 5.1-3.4 1.4-1.4 2.6-3.1 3.4-5.1s1.3-4 1.3-6.3v-43.3h11.9v74.8c0 3.9-.8 7.6-2.4 11s-3.7 6.4-6.5 8.9c-2.7 2.5-6 4.5-9.7 5.9-3.7 1.4-7.7 2.2-12 2.2v-11.9c2.6 0 5-.4 7.3-1.3 2.3-.8 4.3-2 5.9-3.5 1.7-1.5 3-3.2 4-5.1s1.5-4 1.5-6.2v-8.6c-2.3 1.6-4.8 2.8-7.5 3.7-2.7.8-5.6 1.3-8.6 1.3zm79.6-72.7c4.7 0 9.2.8 13.3 2.5s7.8 4 11.1 6.8v-40.2h11.9v67.3c0 5-1 9.7-2.9 14.2-1.9 4.4-4.5 8.3-7.7 11.5-3.3 3.3-7.1 5.8-11.5 7.7-4.4 1.9-9.1 2.9-14.2 2.9-5 0-9.7-1-14.1-2.9s-8.2-4.5-11.5-7.7c-3.3-3.3-5.9-7.1-7.8-11.5-1.9-4.4-2.9-9.1-2.9-14.2 0-5 1-9.7 2.9-14.2 1.9-4.4 4.5-8.3 7.8-11.6 3.3-3.3 7.1-5.9 11.5-7.8 4.4-1.9 9.1-2.8 14.1-2.8zm0 12c-3.4 0-6.5.6-9.5 1.9-3 1.3-5.6 3-7.7 5.2-2.2 2.2-3.9 4.8-5.2 7.8s-2 6.1-2 9.5c0 3.3.6 6.5 2 9.5 1.3 3 3 5.6 5.2 7.7 2.2 2.2 4.8 3.9 7.7 5.2 3 1.3 6.1 2 9.5 2s6.5-.6 9.5-2c3-1.3 5.6-3 7.8-5.2s4-4.8 5.2-7.7c1.3-3 1.9-6.1 1.9-9.5 0-3.3-.6-6.5-1.9-9.5-1.3-3-3-5.6-5.2-7.8s-4.8-4-7.8-5.2c-3-1.3-6.2-1.9-9.5-1.9zm61.5 59.4h-12v-34.9c0-5 1-9.8 3.1-14.2 2-4.5 4.8-8.3 8.4-11.6 3.5-3.3 7.7-5.8 12.4-7.7 4.7-1.9 9.7-2.9 15.1-2.9v12c-3.7 0-7.2.6-10.5 1.9-3.3 1.3-6.1 3-8.6 5.2s-4.4 4.8-5.8 7.8c-1.4 3-2.1 6.1-2.1 9.5v34.9zm65.8-71.4c5 0 9.8 1 14.2 2.9 4.5 1.9 8.4 4.5 11.7 7.8 3.3 3.3 5.9 7.2 7.8 11.6s2.9 9.1 2.9 14.2v34.9h-12.1v-7.8c-3.3 2.9-7 5.1-11.1 6.8-4.1 1.6-8.6 2.4-13.3 2.4-5 0-9.7-1-14.1-2.9s-8.2-4.5-11.5-7.7c-3.3-3.3-5.9-7.1-7.8-11.5s-2.9-9.1-2.9-14.2c0-5 1-9.7 2.9-14.2 1.9-4.4 4.5-8.3 7.8-11.6 3.3-3.3 7.1-5.9 11.5-7.8 4.2-2 8.9-2.9 14-2.9zm0 12c-3.4 0-6.5.6-9.5 1.9-3 1.3-5.6 3-7.7 5.2-2.2 2.2-3.9 4.8-5.2 7.8-1.3 3-2 6.1-2 9.5 0 3.3.6 6.5 2 9.5 1.3 3 3 5.6 5.2 7.7 2.2 2.2 4.8 3.9 7.7 5.2 3 1.3 6.1 2 9.5 2s6.7-.6 9.6-2c3-1.3 5.6-3 7.7-5.2 2.2-2.2 3.9-4.8 5.2-7.7 1.3-3 1.9-6.1 1.9-9.5 0-3.3-.6-6.5-1.9-9.5s-3-5.6-5.2-7.8-4.8-4-7.7-5.2c-3-1.3-6.2-1.9-9.6-1.9zm50.1 49.8c1.6 2.3 3.4 4.3 5.4 6.2 2 2 4.2 3.8 6.6 5.4v30.8h-12v-42.4zm85.4 0c1.6 2.3 3.4 4.3 5.4 6.2 2 2 4.2 3.8 6.6 5.4v30.8h-12v-42.4z"/>
  </symbol>

  <symbol id="logo-color" viewBox="0 0 512 135">
    <path d="M28 30.9c3.8 0 7.4.7 10.8 2.2 3.4 1.5 6.4 3.5 8.9 6s4.5 5.5 6 8.9 2.2 7 2.2 10.8v43.4h-11.9v-43.4c0-2.2-.4-4.3-1.3-6.2-.8-1.9-2-3.6-3.4-5s-3.1-2.6-5-3.4c-1.9-.8-4-1.3-6.2-1.3s-4.3.4-6.3 1.3c-2 .8-3.7 2-5.1 3.4s-2.6 3.1-3.4 5c-.8 1.9-1.3 4-1.3 6.2v43.4h-12v-102.1h12v35.7c2.1-1.6 4.6-2.8 7.4-3.6 2.8-.9 5.7-1.3 8.6-1.3zm362.2.3c5 0 9.7 1 14.2 2.9 4.4 1.9 8.3 4.5 11.6 7.7 3.3 3.3 5.9 7.1 7.8 11.6s2.9 9.2 2.9 14.2-1 9.7-2.9 14.2c-1.9 4.4-4.5 8.3-7.8 11.5-3.3 3.3-7.2 5.8-11.6 7.7-4.4 1.9-9.1 2.9-14.2 2.9s-9.7-1-14.1-2.9-8.2-4.5-11.5-7.7c-3.3-3.3-5.9-7.1-7.8-11.5s-2.9-9.1-2.9-14.2 1-9.8 2.9-14.2c1.9-4.5 4.5-8.3 7.8-11.6 3.3-3.3 7.1-5.8 11.5-7.7 4.4-2 9.1-2.9 14.1-2.9zm0 12c-3.3 0-6.5.6-9.5 1.9-3 1.3-5.6 3-7.8 5.2s-4 4.8-5.2 7.8c-1.3 3-1.9 6.1-1.9 9.5 0 3.3.6 6.5 1.9 9.5s3 5.6 5.2 7.7c2.2 2.2 4.8 3.9 7.8 5.2 3 1.3 6.1 2 9.5 2s6.5-.7 9.5-2 5.6-3 7.8-5.2 4-4.8 5.2-7.7c1.3-3 1.9-6.1 1.9-9.5 0-3.3-.6-6.5-1.9-9.5s-3-5.6-5.2-7.8-4.8-4-7.8-5.2c-3-1.3-6.2-1.9-9.5-1.9zm85.4-12c5 0 9.7 1 14.2 2.9 4.4 1.9 8.3 4.5 11.6 7.7 3.3 3.3 5.9 7.1 7.8 11.6s2.9 9.2 2.9 14.2-1 9.7-2.9 14.2c-1.9 4.4-4.5 8.3-7.8 11.5-3.3 3.3-7.2 5.8-11.6 7.7-4.4 1.9-9.1 2.9-14.2 2.9-5 0-9.7-1-14.1-2.9s-8.2-4.5-11.5-7.7c-3.3-3.3-5.9-7.1-7.8-11.5s-2.9-9.1-2.9-14.2 1-9.8 2.9-14.2c1.9-4.5 4.5-8.3 7.8-11.6 3.3-3.3 7.1-5.8 11.5-7.7 4.4-2 9.1-2.9 14.1-2.9zm0 12c-3.3 0-6.5.6-9.5 1.9-3 1.3-5.6 3-7.8 5.2s-4 4.8-5.2 7.8c-1.3 3-1.9 6.1-1.9 9.5 0 3.3.6 6.5 1.9 9.5s3 5.6 5.2 7.7c2.2 2.2 4.8 3.9 7.8 5.2 3 1.3 6.1 2 9.5 2s6.5-.7 9.5-2 5.6-3 7.8-5.2 4-4.8 5.2-7.7c1.3-3 1.9-6.1 1.9-9.5 0-3.3-.6-6.5-1.9-9.5s-3-5.6-5.2-7.8-4.8-4-7.8-5.2c-3-1.3-6.2-1.9-9.5-1.9z"/>
  </symbol>

  <!-- ARCHIVE EDITION MODE /////////////////////////////////////////////// -->

  <symbol id="down-arrow" viewBox="0 0 512 512">
    <path d="M512,256c0,141.4-114.6,256-256,256S0,397.4,0,256S114.6,0,256,0S512,114.6,512,256z M279.9,344.8l143.8-143.8 c10-10,10-26.1,0-36.1l0,0c-10-10-26.1-10-36.1,0L256,296.6L124.4,164.9c-10-10-26.1-10-36.1,0l0,0c-10,10-10,26.1,0,36.1 l143.8,143.7C245.3,358,266.7,358,279.9,344.8z"/>
  </symbol>
  
  <symbol id="left-arrow" viewBox="0 0 512 512">
    <path d="M142,286.7l184.7,184.7c12.8,12.8,33.5,12.8,46.4,0l0,0c12.8-12.8,12.8-33.5,0-46.4L203.9,256l169-169 c12.8-12.8,12.8-33.5,0-46.4l0,0c-12.8-12.8-33.5-12.8-46.4,0L142,225.3C125.1,242.3,125.1,269.7,142,286.7z"/>
  </symbol>
  
  <symbol id="up-arrow" viewBox="0 0 512 512">
    <path d="M0,256C0,114.6,114.6,0,256,0s256,114.6,256,256S397.4,512,256,512S0,397.4,0,256z M232.1,167.3L88.3,311 c-10,10-10,26.1,0,36.1l0,0c10,10,26.1,10,36.1,0L256,215.4L387.6,347c10,10,26.1,10,36.1,0l0,0c10-10,10-26.1,0-36.1L279.9,167.3 C266.7,154,245.3,154,232.1,167.3z"/>
  </symbol>
  
  <symbol id="right-arrow" viewBox="0 0 512 512">
    <path d="M370,225.3L185.3,40.6c-12.8-12.8-33.5-12.8-46.4,0l0,0c-12.8,12.8-12.8,33.5,0,46.4l169.1,169l-169,169 c-12.8,12.8-12.8,33.5,0,46.4l0,0c12.8,12.8,33.5,12.8,46.4,0L370,286.7C386.9,269.7,386.9,242.3,370,225.3z"/>
  </symbol>
  
  <symbol id="back-arrow" viewBox="0 0 512 512">
    <path d="M221.9,196.3v-45.8c0-8.3-10.1-12.5-15.9-6.6l-97,97c-3.6,3.6-3.6,9.6,0,13.2l97,97c5.9,5.9,15.9,1.7,15.9-6.6V297 c85.3,0,145.1,27.3,187.7,87C392.5,298.7,341.3,213.3,221.9,196.3z M512,256c0,141.4-114.6,256-256,256S0,397.4,0,256S114.6,0,256,0 S512,114.6,512,256z"/>
  </symbol>
  
  <symbol id="edit-mode" viewBox="0 0 512 512">
    <path d="M256,0C114.6,0,0,114.6,0,256s114.6,256,256,256s256-114.6,256-256S397.4,0,256,0z M144.2,289l144.4-144.4l13.1,13.1	L157.3,302.1c-3.6,3.6-9.5,3.6-13.1,0C140.6,298.5,140.6,292.6,144.2,289z M314.9,170.9l26.3,26.3L196.7,341.5	c-7.3,7.3-19,7.3-26.3,0c-7.2-7.3-7.3-19,0-26.3L314.9,170.9z M107.5,404.5l22.7-90.7c0.4,0.4,0.5,1,0.9,1.4c4.3,4.3,9.9,7,15.9,7.8 c-0.3,1.8-0.5,3.5-0.5,5.3c0,9.9,3.9,19.2,10.9,26.3c7,7,16.3,10.9,26.3,10.9c1.9,0,3.8-0.3,5.7-0.6c0.8,5.8,2.9,11.4,7.4,15.9 c0.4,0.4,0.8,0.7,1.2,1L107.5,404.5z M223,367.8c-3.6,3.6-9.5,3.6-13.1,0c-3.6-3.6-3.6-9.5,0-13.1l144.4-144.4l13.1,13.1L223,367.8z M393.7,197.1l-13.1,13.1l-78.8-78.8l13.1-13.1c14.5-14.5,38-14.5,52.5,0l26.3,26.3C408.2,159.1,408.2,182.6,393.7,197.1z"/>
  </symbol>
  
  <symbol id="save-icon" viewBox="0 0 512 512">
    <path d="M256,0C114.6,0,0,114.6,0,256s114.6,256,256,256s256-114.6,256-256S397.4,0,256,0z M266,128h37.1v78.1H266V128z M384,366.6	c0,9.6-7.8,17.4-17.4,17.4H145.4c-9.6,0-17.4-7.8-17.4-17.4V145.4c0-9.6,7.8-17.4,17.4-17.4h40.4v97h138.5v-97h0.1l52,52	c4.9,4.9,7.7,11.5,7.7,18.5V366.6z"/>
  </symbol>
  
  <symbol id="remove-icon" viewBox="0 0 512 512">
    <path d="M0,256C0,114.6,114.6,0,256,0s256,114.6,256,256S397.4,512,256,512S0,397.4,0,256z M383.9,99.6h-82.4 c-0.6-6-5.6-10.6-11.7-10.6h-67.6c-6.1,0-11.1,4.7-11.7,10.6h-82.4c-6.5,0-11.8,5.3-11.8,11.8v22.4c0,6.5,5.3,11.8,11.8,11.8h255.8 c6.5,0,11.8-5.3,11.8-11.8v-22.4C395.7,104.9,390.4,99.6,383.9,99.6z M141,168.2v243c0,6.5,5.3,11.8,11.8,11.8h206.4 c6.5,0,11.8-5.3,11.8-11.8v-243H141z M227.3,350.6c0,7.2-5.8,13-13,13c-7.2,0-13-5.8-13-13V221.8c0-7.2,5.8-13,13-13 c7.2,0,13,5.8,13,13V350.6z M310.7,350.6c0,7.2-5.8,13-13,13c-7.2,0-13-5.8-13-13V221.8c0-7.2,5.8-13,13-13c7.2,0,13,5.8,13,13 V350.6z"/>
  </symbol>

  <!-- EMOTICONS ////////////////////////////////////////////////////////// -->

  <symbol id="emoticon-0" viewBox="0 0 512 512">
    <path d="M322.8,394.9l-33.4-33.4L256,394.9l0,0l0,0l-33.4-33.4l-33.4,33.4l-18.8-18.8l52-52l0.2,0.2l0.2-0.2l33.3,33.3l33.3-33.3	l0.2,0.2l0.2-0.2l52,52L322.8,394.9z M134.9,233l-27.1,27.1L89,241.3l27.1-27.1L89,187.2l18.8-18.8l27.1,27.1l27.1-27.1l18.8,18.8 l-27.1,27.1l27.1,27.1l-18.8,18.8L134.9,233z M423,241.3l-18.8,18.8L377.2,233l-27.1,27.1l-18.8-18.8l27.1-27.1l-27.1-27.1 l18.8-18.8l27.1,27.1l27.1-27.1l18.8,18.8l-27.1,27.1L423,241.3z M256,0.2C114.6,0.2,0,114.8,0,256.2s114.6,256,256,256	s256-114.6,256-256S397.4,0.2,256,0.2z"/>
  </symbol>

  <symbol id="emoticon-1" viewBox="0 0 512 512">
    <path d="M256,0.2C114.6,0.2,0,114.8,0,256.2s114.6,256,256,256s256-114.6,256-256S397.4,0.2,256,0.2z M89,175.8l97.7,40.4l-11,26.5 L78,202.3L89,175.8z M313.4,397.6c0-31.7-25.7-57.4-57.4-57.4s-57.4,25.6-57.4,57.4h-29.2c0-47.7,38.9-86.6,86.6-86.6 s86.6,38.9,86.6,86.6H313.4z M336.3,242.7l-11-26.5l97.7-40.4l11,26.5L336.3,242.7z"/>
  </symbol>

  <symbol id="emoticon-2" viewBox="0 0 512 512">
    <path d="M256,0.2C114.6,0.2,0,114.8,0,256.2s114.6,256,256,256s256-114.6,256-256S397.4,0.2,256,0.2z M87.6,205.7H107 c0,21,17,38,38,38c21,0,38-17,38-38h19.4c0,31.6-25.7,57.4-57.4,57.4S87.6,237.4,87.6,205.7z M313.4,397.6 c0-31.7-25.7-57.4-57.4-57.4s-57.4,25.6-57.4,57.4h-29.2c0-47.7,38.9-86.6,86.6-86.6s86.6,38.9,86.6,86.6H313.4z M367,263.1	c-31.6,0-57.4-25.8-57.4-57.4H329c0,21,17,38,38,38c21,0,38-17,38-38h19.4C424.4,237.4,398.6,263.1,367,263.1z"/>
  </symbol>

  <symbol id="emoticon-3" viewBox="0 0 512 512">
    <path d="M256,0.2C114.6,0.2,0,114.8,0,256.2s114.6,256,256,256s256-114.6,256-256S397.4,0.2,256,0.2z M145,243.7c-21,0-38-17-38-38 s17-38,38-38c21,0,38,17,38,38S166,243.7,145,243.7z M186.2,401.4l-5.5-25.8l145.2-30.8l5.5,25.8L186.2,401.4z M367,243.7 c-21,0-38-17-38-38s17-38,38-38c21,0,38,17,38,38S388,243.7,367,243.7z"/>
  </symbol>

  <symbol id="emoticon-4" viewBox="0 0 512 512">
    <path d="M256,0.2C114.6,0.2,0,114.8,0,256.2s114.6,256,256,256s256-114.6,256-256S397.4,0.2,256,0.2z M145,243.7c-21,0-38-17-38-38 s17-38,38-38c21,0,38,17,38,38S166,243.7,145,243.7z M329,391H183v-26.6H329V391z M367,243.7c-21,0-38-17-38-38s17-38,38-38 c21,0,38,17,38,38S388,243.7,367,243.7z"/>
  </symbol>

  <symbol id="emoticon-5" viewBox="0 0 512 512">
    <path d="M256,0.2C114.6,0.2,0,114.8,0,256.2s114.6,256,256,256s256-114.6,256-256S397.4,0.2,256,0.2z M107,205.7c0-21,17-38,38-38 c21,0,38,17,38,38s-17,38-38,38C124,243.7,107,226.7,107,205.7z M256,417.6c-47.7,0-86.6-38.9-86.6-86.6h29.2 c0,31.7,25.7,57.4,57.4,57.4s57.4-25.6,57.4-57.4h29.2C342.6,378.8,303.7,417.6,256,417.6z M367,243.7c-21,0-38-17-38-38 s17-38,38-38c21,0,38,17,38,38S388,243.7,367,243.7z"/>
  </symbol>

  <symbol id="emoticon-6" viewBox="0 0 512 512">
    <path d="M256,0.2C114.6,0.2,0,114.8,0,256.2s114.6,256,256,256s256-114.6,256-256S397.4,0.2,256,0.2z M107,205.7H87.6 c0-31.6,25.8-57.4,57.4-57.4s57.4,25.7,57.4,57.4H183c0-21-17-38-38-38C124,167.7,107,184.7,107,205.7z M256,417.6 c-47.7,0-86.6-38.9-86.6-86.6h173.2C342.6,378.8,303.7,417.6,256,417.6z M405,205.7c0-21-17-38-38-38c-21,0-38,17-38,38h-19.4 c0-31.6,25.7-57.4,57.4-57.4s57.4,25.7,57.4,57.4H405z"/>
  </symbol>

  <symbol id="emoticon-7" viewBox="0 0 512 512">
    <path d="M256,0.2C114.6,0.2,0,114.8,0,256.2s114.6,256,256,256s256-114.6,256-256S397.4,0.2,256,0.2z M145,253 c-0.1,0-64.7-35.4-66.6-63.4c-2-29.8,15.7-41.3,33.7-41.3c12.6,0,27.4,17.6,32.8,29c5.4-11.3,20.3-29,32.9-29 c18,0,35.7,11.5,33.7,41.3C209.6,217.4,145.9,252.5,145,253L145,253z M256,417.6c-47.7,0-86.6-38.9-86.6-86.6h173.2 C342.6,378.8,303.7,417.6,256,417.6z M433.5,189.6c-1.9,27.8-65.7,62.9-66.5,63.4v0.1c-0.1,0-64.6-35.4-66.6-63.4 c-2-29.8,15.7-41.3,33.7-41.3c12.5,0,27.4,17.6,32.8,29c5.4-11.3,20.3-29,32.9-29C417.8,148.3,435.6,159.8,433.5,189.6z"/>
  </symbol>
</svg>