<svg xmlns="http://www.w3.org/2000/svg" style="display: none;">

  <symbol id="left-arrow" viewBox="0 0 512 512">
    <path d="M512,256c0,141.4-114.6,256-256,256S0,397.4,0,256S114.6,0,256,0S512,114.6,512,256z M148.7,279.9l143.8,143.8	c10,10,26.1,10,36.1,0l0,0c10-10,10-26.1,0-36.1L196.9,256l131.6-131.6c10-10,10-26.1,0-36.1l0,0c-10-10-26.1-10-36.1,0L148.7,232.1	C135.5,245.3,135.5,266.7,148.7,279.9z"/>
  </symbol>
  
  <symbol id="right-arrow" viewBox="0 0 512 512">
    <path d="M0,256C0,114.6,114.6,0,256,0s256,114.6,256,256S397.4,512,256,512S0,397.4,0,256z M363.3,232.1L219.5,88.3 c-10-10-26.1-10-36.1,0l0,0c-10,10-10,26.1,0,36.1L315.1,256L183.5,387.6c-10,10-10,26.1,0,36.1l0,0c10,10,26.1,10,36.1,0 l143.7-143.8C376.5,266.7,376.5,245.3,363.3,232.1z"/>
  </symbol>
  
  <symbol id="back-arrow" viewBox="0 0 512 512">
    <path d="M221.9,196.3v-45.8c0-8.3-10.1-12.5-15.9-6.6l-97,97c-3.6,3.6-3.6,9.6,0,13.2l97,97c5.9,5.9,15.9,1.7,15.9-6.6V297 c85.3,0,145.1,27.3,187.7,87C392.5,298.7,341.3,213.3,221.9,196.3z M512,256c0,141.4-114.6,256-256,256S0,397.4,0,256S114.6,0,256,0 S512,114.6,512,256z"/>
  </symbol>
  
  <symbol id="edit-mode" viewBox="0 0 512 512">
    <path d="M256,0C114.6,0,0,114.6,0,256s114.6,256,256,256s256-114.6,256-256S397.4,0,256,0z M144.2,289l144.4-144.4l13.1,13.1	L157.3,302.1c-3.6,3.6-9.5,3.6-13.1,0C140.6,298.5,140.6,292.6,144.2,289z M314.9,170.9l26.3,26.3L196.7,341.5	c-7.3,7.3-19,7.3-26.3,0c-7.2-7.3-7.3-19,0-26.3L314.9,170.9z M107.5,404.5l22.7-90.7c0.4,0.4,0.5,1,0.9,1.4c4.3,4.3,9.9,7,15.9,7.8 c-0.3,1.8-0.5,3.5-0.5,5.3c0,9.9,3.9,19.2,10.9,26.3c7,7,16.3,10.9,26.3,10.9c1.9,0,3.8-0.3,5.7-0.6c0.8,5.8,2.9,11.4,7.4,15.9 c0.4,0.4,0.8,0.7,1.2,1L107.5,404.5z M223,367.8c-3.6,3.6-9.5,3.6-13.1,0c-3.6-3.6-3.6-9.5,0-13.1l144.4-144.4l13.1,13.1L223,367.8z M393.7,197.1l-13.1,13.1l-78.8-78.8l13.1-13.1c14.5-14.5,38-14.5,52.5,0l26.3,26.3C408.2,159.1,408.2,182.6,393.7,197.1z"/>
  </symbol>
  
  <symbol id="save-icon" viewBox="0 0 512 512">
    <path d="M256,0C114.6,0,0,114.6,0,256s114.6,256,256,256s256-114.6,256-256S397.4,0,256,0z M266,128h37.1v78.1H266V128z M384,366.6	c0,9.6-7.8,17.4-17.4,17.4H145.4c-9.6,0-17.4-7.8-17.4-17.4V145.4c0-9.6,7.8-17.4,17.4-17.4h40.4v97h138.5v-97h0.1l52,52	c4.9,4.9,7.7,11.5,7.7,18.5V366.6z"/>
  </symbol>
</svg>