<svg xmlns="http://www.w3.org/2000/svg" style="display: none;">
  <!-- 0 -->
  <symbol id="digit-0" viewBox="0 0 80 100">
    <path d="M54.8 73.52c-4.24 5.68-9.6 8.48-14.8 8.48-5.2 0-10.56-2.8-14.8-8.48-4.32-5.76-7.2-14-7.2-23.52s2.88-17.76 7.2-23.52c4.24-5.68 9.6-8.48 14.8-8.48 5.2 0 10.56 2.8 14.8 8.48 4.32 5.76 7.2 14 7.2 23.52s-2.88 17.76-7.2 23.52zm-54.8-73.52v100h80v-100zm40 10c16.56 0 30 17.92 30 40s-13.44 40-30 40c-16.56 0-30-17.92-30-40s13.44-40 30-40z"/>
  </symbol>
  <!-- 1 -->
  <symbol id="digit-1" viewBox="0 0 80 100">
    <path d="M0-2.6v102.6h80v-102.6h-80zm48.152 12.6c1.148 0 2.059.41 2.734 1.229.742.75 1.113 1.671 1.113 2.762v72.02c0 1.159-.371 2.115-1.113 2.865s-1.689 1.125-2.836 1.125h-.002c-1.08 0-2.024-.377-2.834-1.127-.742-.75-1.115-1.703-1.115-2.863v-66.496l-10.125 3.582c-.742.341-1.417.51-2.025.51-1.148 0-2.094-.375-2.836-1.125s-1.113-1.671-1.113-2.762c0-.818.168-1.568.506-2.25.405-.682 1.08-1.194 2.025-1.535l15.596-5.422c.338-.137.674-.238 1.012-.307.405-.137.743-.205 1.014-.205z"/>
  </symbol>
  <!-- 2 -->
  <symbol id="digit-2" viewBox="0 0 80 100">
    <path d="M0 0v100h80v-100h-80zm39.334 10c4.435 0 8.358 1.023 11.77 3.068 3.48 2.046 6.175 4.877 8.086 8.492 1.978 3.614 2.969 7.775 2.969 12.48 0 2.25-.377 4.398-1.127 6.443-.682 2.046-1.637 4.024-2.865 5.934-1.228 1.842-2.557 3.582-3.99 5.219l-26.201 30.383h32.035c1.092 0 2.011.409 2.762 1.229.818.818 1.229 1.739 1.229 2.762 0 1.159-.41 2.115-1.229 2.865-.75.75-1.671 1.125-2.762 1.125h-39.404c-1.092 0-2.047-.377-2.865-1.127-.75-.75-1.125-1.703-1.125-2.863 0-1.023.375-1.945 1.125-2.764l31.01-36.623c1.706-1.842 3.071-3.888 4.094-6.139 1.023-2.318 1.535-4.466 1.535-6.443 0-3.206-.649-6.037-1.945-8.492-1.228-2.455-3.001-4.365-5.32-5.729-2.252-1.432-4.846-2.148-7.779-2.148-2.866 0-5.493.752-7.881 2.252-2.32 1.432-4.161 3.375-5.525 5.83-1.296 2.455-1.945 5.218-1.945 8.287 0 1.091-.375 2.011-1.125 2.762-.75.75-1.707 1.125-2.867 1.125-1.092 0-2.047-.375-2.865-1.125-.75-.75-1.125-1.671-1.125-2.762 0-4.57 1.023-8.663 3.07-12.277 2.047-3.614 4.81-6.477 8.289-8.592 3.548-2.114 7.539-3.172 11.975-3.172z"/>
  </symbol>
  <!-- 3 -->
  <symbol id="digit-3" viewBox="0 0 80 100">
    <path d="M0 0v100h80v-100h-80zm40.445 10c3.827 0 7.258.876 10.293 2.629 3.101 1.686 5.541 4.046 7.322 7.08 1.848 2.966 2.771 6.305 2.771 10.014 0 2.293-.56 4.516-1.682 6.674-1.056 2.158-2.474 4.112-4.256 5.865-1.782 1.686-3.728 3.001-5.84 3.945 3.365 1.011 6.171 2.563 8.414 4.652 2.243 2.09 3.891 4.551 4.947 7.383 1.056 2.765 1.584 5.664 1.584 8.697 0 4.45-1.057 8.427-3.168 11.934-2.045 3.438-4.881 6.171-8.51 8.193-3.629 1.955-7.654 2.932-12.074 2.932v.002c-4.618 0-8.776-1.012-12.471-3.035-3.629-2.09-6.498-4.921-8.609-8.494-2.111-3.574-3.168-7.619-3.168-12.137 0-1.146.33-2.125.99-2.934.659-.809 1.55-1.213 2.672-1.213 1.121 0 2.012.404 2.672 1.213.659.809.99 1.787.99 2.934 0 3.102.726 5.9 2.178 8.395 1.452 2.427 3.43 4.382 5.938 5.865 2.573 1.416 5.411 2.123 8.512 2.123 5.146 0 9.171-1.449 12.074-4.348 2.903-2.966 4.355-6.775 4.355-11.428 0-3.304-.692-6.171-2.078-8.598-1.386-2.494-3.268-4.415-5.643-5.764-2.376-1.416-5.047-2.125-8.016-2.125-1.056 0-1.946-.371-2.672-1.113-.726-.742-1.09-1.686-1.09-2.832 0-1.078.364-1.989 1.09-2.73.726-.742 1.616-1.111 2.672-1.111 2.31 0 4.421-.574 6.334-1.721 1.98-1.214 3.563-2.797 4.75-4.752 1.187-1.955 1.781-4.113 1.781-6.473 0-3.574-1.187-6.54-3.563-8.9-2.376-2.427-5.543-3.641-9.502-3.641-2.771 0-5.245.572-7.422 1.719-2.177 1.078-3.893 2.563-5.146 4.451-1.187 1.821-1.781 3.91-1.781 6.27 0 1.146-.364 2.125-1.09 2.934-.659.742-1.517 1.111-2.572 1.111-1.121 0-2.014-.369-2.674-1.111-.66-.809-.988-1.753-.988-2.832 0-3.708.924-7.047 2.771-10.014 1.914-3.034 4.486-5.394 7.719-7.08 3.233-1.753 6.961-2.629 11.184-2.629z"/>
  </symbol>
  <!-- 4 -->
  <symbol id="digit-4" viewBox="0 0 80 100">
    <path d="M0 0v100h80v-100h-80zm54.342 10c1.085 0 1.964.41 2.643 1.229.746.75 1.119 1.703 1.119 2.863v49.617h8.033c1.085 0 1.999.273 2.744.818.746.546 1.119 1.499 1.119 2.863 0 .886-.374 1.705-1.119 2.455-.746.682-1.659 1.023-2.744 1.023h-8.033v15.141c0 1.159-.374 2.115-1.119 2.865-.746.75-1.693 1.125-2.846 1.125-1.017 0-1.899-.377-2.645-1.127s-1.117-1.703-1.117-2.863v-15.141h-36.4c-1.085 0-2.001-.341-2.746-1.023-.678-.75-1.086-1.603-1.221-2.559-.068-.955.204-1.842.814-2.66l40.264-52.99c.339-.478.744-.852 1.219-1.125.542-.341 1.222-.512 2.035-.512zm-3.965 14.619l-29.98 39.09h29.98v-39.09z"/>
  </symbol>
  <!-- 5 -->
  <symbol id="digit-5" viewBox="0 0 80 100">
    <path d="M0 0v100h80v-100h-80zm22 10h36c1.094 0 2.017.41 2.77 1.229.821.75 1.23 1.671 1.23 2.762s-.377 2.047-1.129 2.865c-.752.75-1.709 1.125-2.871 1.125h-32.102v20.051h14.051c4.991 0 9.436 1.159 13.334 3.479 3.898 2.25 6.973 5.353 9.229 9.309 2.325 3.887 3.488 8.287 3.488 13.197 0 4.91-1.164 9.343-3.488 13.299-2.257 3.887-5.332 6.991-9.229 9.311-3.898 2.25-8.342 3.375-13.334 3.375-4.923 0-9.334-1.127-13.23-3.377-3.898-2.319-7.009-5.421-9.334-9.309-2.257-3.956-3.385-8.389-3.385-13.299 0-1.159.377-2.115 1.129-2.865s1.675-1.125 2.77-1.125c1.162 0 2.119.375 2.871 1.125.821.75 1.23 1.705 1.23 2.865 0 3.41.787 6.479 2.359 9.207 1.573 2.728 3.692 4.875 6.359 6.443 2.735 1.569 5.812 2.354 9.23 2.354 3.419 0 6.495-.785 9.23-2.354 2.735-1.569 4.888-3.715 6.461-6.443 1.573-2.728 2.359-5.797 2.359-9.207 0-3.41-.787-6.479-2.359-9.207-1.573-2.728-3.726-4.877-6.461-6.445-2.735-1.569-5.811-2.354-9.23-2.354h-17.949c-1.162 0-2.119-.375-2.871-1.125-.752-.818-1.129-1.773-1.129-2.865v-28.029c0-1.091.377-2.011 1.129-2.762.752-.818 1.709-1.229 2.871-1.229z"/>
  </symbol>
  <!-- 6 -->
  <symbol id="digit-6" viewBox="0 0 80 100">
    <path d="M0 0v100h80v-100h-80zm47.83 10c1.023 0 1.91.307 2.66.922.75.614 1.193 1.399 1.33 2.355.205.956.036 1.878-.51 2.766l-16.078 26.23c1.54-.275 3.145-.418 4.818-.418 4.572 0 8.665 1.059 12.281 3.176 3.616 2.049 6.447 4.918 8.494 8.605 2.115 3.619 3.174 7.716 3.174 12.291 0 4.643-1.059 8.775-3.174 12.395-2.046 3.619-4.878 6.487-8.494 8.604-3.617 2.049-7.71 3.074-12.281 3.074-4.639 0-8.767-1.025-12.383-3.074-3.616-2.117-6.482-4.984-8.598-8.604-2.047-3.619-3.07-7.751-3.07-12.395 0-4.552 1.015-8.631 3.041-12.236l-.072.047 25.279-41.586c.887-1.434 2.081-2.152 3.582-2.152zm-7.881 39.131c-3.138 0-5.937.75-8.393 2.252-2.456 1.434-4.399 3.415-5.832 5.941-1.434 2.527-2.15 5.396-2.15 8.605 0 3.21.718 6.077 2.15 8.604 1.433 2.527 3.376 4.507 5.832 5.941 2.456 1.434 5.254 2.15 8.393 2.15 3.138 0 5.935-.716 8.391-2.15 2.525-1.434 4.505-3.415 5.938-5.941 1.433-2.526 2.15-5.394 2.15-8.604 0-3.21-.718-6.079-2.15-8.605-1.433-2.527-3.413-4.507-5.938-5.941-2.456-1.502-5.252-2.252-8.391-2.252z"/>
  </symbol>
  <!-- 7 -->
  <symbol id="digit-7" viewBox="0 0 80 100">
    <path d="M0 0v100h80v-100h-80zm19.113 10h41.936c1.129 0 2.016.399 2.822 1.199.726.8 1.129 1.681 1.129 2.801 0 .32-.081.719-.242 1.119l-.402 1.041-33.711 71.6c-.726 1.52-1.934 2.24-3.547 2.24-1.129 0-2.098-.399-2.904-1.119s-1.129-1.681-1.129-2.881c0-.32.081-.719.242-1.119.161-.4.322-.881.645-1.441l30.646-65.439h-35.484c-1.129 0-2.178-.399-2.984-1.119-.726-.88-1.129-1.841-1.129-2.881 0-1.04.403-2.001 1.129-2.801.806-.8 1.855-1.199 2.984-1.199z"/>
  </symbol>
  <!-- 8 -->
  <symbol id="digit-8" viewBox="0 0 80 100">
    <path d="M0 0v100h80v-100zm40.082 10.006c3.742-.08 7.158.721 10.25 2.482 3.01 1.601 5.37 3.924 7.078 6.887 1.708 2.883 2.523 6.164 2.441 9.848 0 3.764-.896 7.127-2.686 10.01-1.383 2.322-3.255 4.324-5.451 5.846.163.08.406.16.65.32 3.661 2.002 6.509 4.805 8.543 8.328 2.034 3.523 3.092 7.528 3.092 12.012 0 4.644-1.139 8.727-3.254 12.41-2.034 3.603-4.882 6.566-8.543 8.729-3.58 2.082-7.565 3.123-12.121 3.123-4.637 0-8.706-1.041-12.367-3.123-3.661-2.162-6.508-5.045-8.623-8.729-2.034-3.683-3.092-7.766-3.092-12.41 0-4.484 1.059-8.488 3.174-11.932 2.115-3.523 4.962-6.326 8.623-8.328l.568-.32c-2.278-1.601-4.148-3.524-5.531-5.926-1.708-2.963-2.604-6.246-2.604-10.01 0-3.603.895-6.885 2.604-9.768 1.708-2.883 4.068-5.205 7.078-6.887 3.01-1.682 6.428-2.563 10.17-2.563zm-.001 39.396c3.092 0 5.858.721 8.217 2.162 2.359 1.441 4.312 3.363 5.614 5.926 1.383 2.402 2.034 5.205 2.034 8.328 0 3.283-.732 6.166-2.197 8.728-1.383 2.562-3.254 4.644-5.614 6.246-2.359 1.521-5.125 2.242-8.136 2.242-3.092 0-5.858-.721-8.298-2.242-2.359-1.521-4.312-3.603-5.614-6.246-1.383-2.562-2.034-5.525-2.034-8.728 0-3.123.651-5.926 2.034-8.328 1.464-2.482 3.336-4.484 5.776-5.926 2.441-1.441 5.125-2.162 8.217-2.162zm0-32.19c2.359 0 4.393.48 6.264 1.521 1.871 1.041 3.254 2.402 4.312 4.244 1.058 1.762 1.627 3.764 1.546 6.086 0 2.402-.569 4.564-1.627 6.486-1.058 1.922-2.603 3.443-4.393 4.564-1.79 1.121-3.824 1.601-6.102 1.601-3.58 0-6.508-1.201-8.868-3.683-2.359-2.402-3.498-5.445-3.417-9.048.081-3.363 1.22-6.246 3.498-8.408 2.359-2.162 5.288-3.363 8.786-3.363z"/>
  </symbol>
  <!-- 9 -->
  <symbol id="digit-9" viewBox="0 0 80 100">
    <path d="M0 0v100h80v-100zm39.92 10c4.64 0 8.8 1.039 12.4 3.199 3.6 2 6.48 4.88 8.48 8.4 2.16 3.6 3.199 7.76 3.199 12.4 0 4.56-1.039 8.64-3.119 12.32l.158-.08-25.279 41.6c-.88 1.44-2.08 2.16-3.6 2.16-1.04 0-1.921-.401-2.641-.961-.72-.56-1.199-1.358-1.439-2.318-.08-.96.081-1.921.641-2.801l16-26.16c-1.52.24-3.121.4-4.801.4-4.64 0-8.72-.961-12.32-3.041-3.6-2.16-6.481-5.039-8.561-8.639-2-3.68-3.039-7.84-3.039-12.4 0-4.64 1.039-8.8 3.039-12.4 2.08-3.6 4.961-6.4 8.561-8.48 3.68-2.16 7.76-3.199 12.32-3.199zm.16 7.36c3.12 0 5.92.72 8.4 2.16 2.48 1.44 4.4 3.44 5.84 5.92 1.44 2.56 2.16 5.36 2.16 8.64 0 3.28-.72 6.08-2.16 8.64-1.44 2.56-3.36 4.56-5.84 6.08-2.48 1.44-5.28 2.16-8.4 2.16s-6-.72-8.48-2.16c-2.48-1.52-4.4-3.52-5.84-6.08-1.44-2.56-2.16-5.36-2.16-8.64 0-3.28.72-6.08 2.16-8.64 1.44-2.56 3.36-4.48 5.84-5.92 2.48-1.44 5.28-2.16 8.48-2.16z"/>
  </symbol>
</svg>