<svg xmlns="http://www.w3.org/2000/svg" style="display: none;">

  <symbol id="emo-0" viewBox="0 0 512 512">
    <path d="M322.8,394.9l-33.4-33.4L256,394.9l0,0l0,0l-33.4-33.4l-33.4,33.4l-18.8-18.8l52-52l0.2,0.2l0.2-0.2l33.3,33.3l33.3-33.3	l0.2,0.2l0.2-0.2l52,52L322.8,394.9z M134.9,233l-27.1,27.1L89,241.3l27.1-27.1L89,187.2l18.8-18.8l27.1,27.1l27.1-27.1l18.8,18.8 l-27.1,27.1l27.1,27.1l-18.8,18.8L134.9,233z M423,241.3l-18.8,18.8L377.2,233l-27.1,27.1l-18.8-18.8l27.1-27.1l-27.1-27.1 l18.8-18.8l27.1,27.1l27.1-27.1l18.8,18.8l-27.1,27.1L423,241.3z M256,0.2C114.6,0.2,0,114.8,0,256.2s114.6,256,256,256	s256-114.6,256-256S397.4,0.2,256,0.2z"/>
  </symbol>

  <symbol id="emo-1" viewBox="0 0 512 512">
    <path d="M256,0.2C114.6,0.2,0,114.8,0,256.2s114.6,256,256,256s256-114.6,256-256S397.4,0.2,256,0.2z M89,175.8l97.7,40.4l-11,26.5 L78,202.3L89,175.8z M313.4,397.6c0-31.7-25.7-57.4-57.4-57.4s-57.4,25.6-57.4,57.4h-29.2c0-47.7,38.9-86.6,86.6-86.6 s86.6,38.9,86.6,86.6H313.4z M336.3,242.7l-11-26.5l97.7-40.4l11,26.5L336.3,242.7z"/>
  </symbol>

  <symbol id="emo-2" viewBox="0 0 512 512">
    <path d="M256,0.2C114.6,0.2,0,114.8,0,256.2s114.6,256,256,256s256-114.6,256-256S397.4,0.2,256,0.2z M87.6,205.7H107 c0,21,17,38,38,38c21,0,38-17,38-38h19.4c0,31.6-25.7,57.4-57.4,57.4S87.6,237.4,87.6,205.7z M313.4,397.6 c0-31.7-25.7-57.4-57.4-57.4s-57.4,25.6-57.4,57.4h-29.2c0-47.7,38.9-86.6,86.6-86.6s86.6,38.9,86.6,86.6H313.4z M367,263.1	c-31.6,0-57.4-25.8-57.4-57.4H329c0,21,17,38,38,38c21,0,38-17,38-38h19.4C424.4,237.4,398.6,263.1,367,263.1z"/>
  </symbol>

  <symbol id="emo-3" viewBox="0 0 512 512">
    <path d="M256,0.2C114.6,0.2,0,114.8,0,256.2s114.6,256,256,256s256-114.6,256-256S397.4,0.2,256,0.2z M145,243.7c-21,0-38-17-38-38 s17-38,38-38c21,0,38,17,38,38S166,243.7,145,243.7z M186.2,401.4l-5.5-25.8l145.2-30.8l5.5,25.8L186.2,401.4z M367,243.7 c-21,0-38-17-38-38s17-38,38-38c21,0,38,17,38,38S388,243.7,367,243.7z"/>
  </symbol>

  <symbol id="emo-4" viewBox="0 0 512 512">
    <path d="M256,0.2C114.6,0.2,0,114.8,0,256.2s114.6,256,256,256s256-114.6,256-256S397.4,0.2,256,0.2z M145,243.7c-21,0-38-17-38-38 s17-38,38-38c21,0,38,17,38,38S166,243.7,145,243.7z M329,391H183v-26.6H329V391z M367,243.7c-21,0-38-17-38-38s17-38,38-38 c21,0,38,17,38,38S388,243.7,367,243.7z"/>
  </symbol>

  <symbol id="emo-5" viewBox="0 0 512 512">
    <path d="M256,0.2C114.6,0.2,0,114.8,0,256.2s114.6,256,256,256s256-114.6,256-256S397.4,0.2,256,0.2z M107,205.7c0-21,17-38,38-38 c21,0,38,17,38,38s-17,38-38,38C124,243.7,107,226.7,107,205.7z M256,417.6c-47.7,0-86.6-38.9-86.6-86.6h29.2 c0,31.7,25.7,57.4,57.4,57.4s57.4-25.6,57.4-57.4h29.2C342.6,378.8,303.7,417.6,256,417.6z M367,243.7c-21,0-38-17-38-38 s17-38,38-38c21,0,38,17,38,38S388,243.7,367,243.7z"/>
  </symbol>

  <symbol id="emo-6" viewBox="0 0 512 512">
    <path d="M256,0.2C114.6,0.2,0,114.8,0,256.2s114.6,256,256,256s256-114.6,256-256S397.4,0.2,256,0.2z M107,205.7H87.6 c0-31.6,25.8-57.4,57.4-57.4s57.4,25.7,57.4,57.4H183c0-21-17-38-38-38C124,167.7,107,184.7,107,205.7z M256,417.6 c-47.7,0-86.6-38.9-86.6-86.6h173.2C342.6,378.8,303.7,417.6,256,417.6z M405,205.7c0-21-17-38-38-38c-21,0-38,17-38,38h-19.4 c0-31.6,25.7-57.4,57.4-57.4s57.4,25.7,57.4,57.4H405z"/>
  </symbol>

  <symbol id="emo-7" viewBox="0 0 512 512">
    <path d="M256,0.2C114.6,0.2,0,114.8,0,256.2s114.6,256,256,256s256-114.6,256-256S397.4,0.2,256,0.2z M145,253 c-0.1,0-64.7-35.4-66.6-63.4c-2-29.8,15.7-41.3,33.7-41.3c12.6,0,27.4,17.6,32.8,29c5.4-11.3,20.3-29,32.9-29 c18,0,35.7,11.5,33.7,41.3C209.6,217.4,145.9,252.5,145,253L145,253z M256,417.6c-47.7,0-86.6-38.9-86.6-86.6h173.2 C342.6,378.8,303.7,417.6,256,417.6z M433.5,189.6c-1.9,27.8-65.7,62.9-66.5,63.4v0.1c-0.1,0-64.6-35.4-66.6-63.4 c-2-29.8,15.7-41.3,33.7-41.3c12.5,0,27.4,17.6,32.8,29c5.4-11.3,20.3-29,32.9-29C417.8,148.3,435.6,159.8,433.5,189.6z"/>
  </symbol>
</svg>